<?xml version="1.0" encoding="utf-8"?>
<!-- Generator: Adobe Illustrator 23.0.3, SVG Export Plug-In . SVG Version: 6.00 Build 0)  -->
<svg version="1.1" id="Layer_1" xmlns="http://www.w3.org/2000/svg" xmlns:xlink="http://www.w3.org/1999/xlink" x="0px" y="0px"
	 viewBox="0 0 200 200" style="enable-background:new 0 0 200 200;" xml:space="preserve">
<style type="text/css">
	.st0{fill:#FFAA00;}
	.st1{fill:#FFFFFF;}
</style>
<path class="st0" d="M178.1,200H21.9C9.8,200,0,190.2,0,178.1V21.9C0,9.8,9.8,0,21.9,0h156.3C190.2,0,200,9.8,200,21.9v156.3
	C200,190.2,190.2,200,178.1,200z"/>
<g>
	<path class="st1" d="M22.5,154.6c53-24.9,101.2-56,138.2-102.5c-1.9-1.9-3.5-3.7-5.8-6.2c2.1-0.2,3.3-0.5,4.5-0.4
		c4.7,0.1,9.3,0.2,13.9,0.6c1,0.1,2.7,1.1,2.7,1.9c0.6,5.8,1,11.6,1.5,17.4c0,0.2-0.2,0.5-0.5,1.3c-2.2-1.9-4.3-3.5-6.3-5.3
		c-4.4,5.1-8.5,10.2-13,14.9c-15.6,16.6-33.8,30-53.4,41.7c-24.1,14.4-49.5,26-76.1,35C26.4,153.5,24.4,154,22.5,154.6z"/>
	<path class="st1" d="M73.3,111.1c-0.1-1.3-0.2-2.3-0.2-3.2c0-10.6,0.1-21.1-0.1-31.8c0-2.7,0.7-3.8,3.5-3.6c4.1,0.2,8.3,0.2,12.5,0
		c2.3-0.1,3.1,0.9,3.1,3.1c-0.1,7.6,0,15.2-0.1,22.8c0,1-0.4,2.4-1.1,2.8c-5.2,3.3-10.6,6.4-16,9.6
		C74.6,111.1,74.1,111.1,73.3,111.1z"/>
	<path class="st1" d="M47.3,125.7c-0.2-2-0.3-3.1-0.3-4.1c0-10.1,0-20.2,0-30.2c0-3.6,0.2-4,3.8-4c4,0,8.1,0.1,12.2,0
		c2.1,0,3.1,0.6,3.1,2.9c-0.1,7.8,0,15.6-0.1,23.4c0,0.9-0.3,2.3-1,2.6C59.3,119.4,53.7,122.3,47.3,125.7z"/>
	<path class="st1" d="M100.8,94.8c-0.2-1.1-0.4-2-0.4-3c0-10.6,0-21.1-0.1-31.7c0-2.6,0.7-3.8,3.5-3.6c4.1,0.2,8.3,0.1,12.4,0
		c2.1-0.1,3.1,0.6,3.1,2.9c-0.1,6.9,0,13.9-0.2,20.7c0,1-0.6,2.5-1.4,3.1c-5.2,3.8-10.5,7.5-15.7,11.1
		C102,94.6,101.5,94.6,100.8,94.8z"/>
</g>
</svg>
